# xmcd
#
# Track frame offsets: 
#        150
#        34801
#        87495
#        130460
#        173397
#
# Disc length: 2711 seconds
#
# Revision: 2
# Processed by: cddbd v1.5.1PL0 Copyright (c) Steve Scherf et al.
# Submitted via: ExactAudioCopy v0.95a5
#
DISCID=390a9505
DTITLE=Джоаккино Россини - Увертюры
DYEAR=1900
DGENRE=Classical
TTITLE0=Севильский цирюльник
TTITLE1=Сорока воровка
TTITLE2=Итальянка в Алжире
TTITLE3=Золушка
TTITLE4=Шелковая лестница
EXTD=
EXTT0=
EXTT1=
EXTT2=
EXTT3=
EXTT4=
PLAYORDER=
